<svg xmlns="http://www.w3.org/2000/svg" viewBox="0 0 800 400" width="800" height="400">
  <rect width="800" height="400" fill="#0a0a0a"/>
  <line x1="400" y1="60" x2="400" y2="340" stroke="#5c0000" stroke-width="1.5"/>
  <line x1="120" y1="200" x2="680" y2="200" stroke="#5c0000" stroke-width="1.5"/>
  <polygon points="400,135 465,200 400,265 335,200" fill="none" stroke="#5c0000" stroke-width="0.5" opacity="0.4"/>
  <polygon points="400,108 492,200 400,292 308,200" fill="none" stroke="#5c0000" stroke-width="0.5" opacity="0.4"/>
  <polygon points="400,80 520,200 400,320 280,200" fill="none" stroke="#5c0000" stroke-width="0.5" opacity="0.4"/>
  <polygon points="293.4,200 400,200.0 400.0,200 400,222.1" fill="#8b0000" fill-opacity="0.35" stroke="#8b0000" stroke-width="2"/>
  <circle cx="293.4" cy="200" r="5" fill="#8b0000" stroke="#d4d4d4" stroke-width="1.5"/>
  <circle cx="400" cy="200.0" r="5" fill="#8b0000" stroke="#d4d4d4" stroke-width="1.5"/>
  <circle cx="400.0" cy="200" r="5" fill="#8b0000" stroke="#d4d4d4" stroke-width="1.5"/>
  <circle cx="400" cy="222.1" r="5" fill="#8b0000" stroke="#d4d4d4" stroke-width="1.5"/>
  <text x="80" y="195" fill="#d4d4d4" font-family="-apple-system, Segoe UI, sans-serif" font-size="15" text-anchor="middle" font-weight="600">82%</text>
  <text x="80" y="215" fill="#888" font-family="-apple-system, Segoe UI, sans-serif" font-size="13" text-anchor="middle">Commits</text>
  <text x="720" y="195" fill="#d4d4d4" font-family="-apple-system, Segoe UI, sans-serif" font-size="15" text-anchor="middle" font-weight="600">0%</text>
  <text x="720" y="215" fill="#888" font-family="-apple-system, Segoe UI, sans-serif" font-size="13" text-anchor="middle">Issues</text>
  <text x="400" y="40" fill="#d4d4d4" font-family="-apple-system, Segoe UI, sans-serif" font-size="15" text-anchor="middle" font-weight="600">0%</text>
  <text x="400" y="58" fill="#888" font-family="-apple-system, Segoe UI, sans-serif" font-size="13" text-anchor="middle">Code review</text>
  <text x="400" y="365" fill="#d4d4d4" font-family="-apple-system, Segoe UI, sans-serif" font-size="15" text-anchor="middle" font-weight="600">17%</text>
  <text x="400" y="385" fill="#888" font-family="-apple-system, Segoe UI, sans-serif" font-size="13" text-anchor="middle">Pull requests</text>
</svg>
